<svg xmlns="http://www.w3.org/2000/svg" xmlns:xlink="http://www.w3.org/1999/xlink" width="1920" zoomAndPan="magnify" viewBox="0 0 1440 809.999993" height="1080" preserveAspectRatio="xMidYMid meet" version="1.0"><defs><clipPath id="766cca9770"><path d="M 342.222656 14.480469 L 1122.972656 14.480469 L 1122.972656 795.230469 L 342.222656 795.230469 Z M 342.222656 14.480469 " clip-rule="nonzero"/></clipPath></defs><rect x="-144" width="1728" fill="#ffffff" y="-80.999999" height="971.999992" fill-opacity="1"/><rect x="-144" width="1728" fill="#ffffff" y="-80.999999" height="971.999992" fill-opacity="1"/><g clip-path="url(#766cca9770)"><path fill="#004aad" d="M 732.738281 14.480469 C 517.019531 14.480469 342.222656 189.277344 342.222656 404.996094 C 342.222656 620.71875 517.019531 795.511719 732.738281 795.511719 C 948.460938 795.511719 1123.253906 620.71875 1123.253906 404.996094 C 1123.253906 189.277344 948.460938 14.480469 732.738281 14.480469 Z M 963.457031 239.417969 L 733.988281 398.4375 L 502.023438 239.417969 Z M 967.046875 570.574219 L 498.429688 570.574219 L 498.429688 254.257812 L 733.988281 414.210938 L 967.046875 254.726562 Z M 967.046875 570.574219 " fill-opacity="1" fill-rule="nonzero"/></g></svg>