<svg xmlns="http://www.w3.org/2000/svg" xmlns:xlink="http://www.w3.org/1999/xlink" width="1920" zoomAndPan="magnify" viewBox="0 0 1440 809.999993" height="1080" preserveAspectRatio="xMidYMid meet" version="1.0"><defs><clipPath id="7e0fdd7e40"><path d="M 340.917969 25.917969 L 1099.167969 25.917969 L 1099.167969 784.167969 L 340.917969 784.167969 Z M 340.917969 25.917969 " clip-rule="nonzero"/></clipPath></defs><rect x="-144" width="1728" fill="#ffffff" y="-80.999999" height="971.999992" fill-opacity="1"/><rect x="-144" width="1728" fill="#ffffff" y="-80.999999" height="971.999992" fill-opacity="1"/><path fill="#004aad" d="M 720.066406 192.726562 C 669.792969 192.726562 629.035156 233.476562 629.035156 283.746094 C 629.035156 334.019531 669.792969 374.777344 720.066406 374.777344 C 770.335938 374.777344 811.089844 334.019531 811.089844 283.746094 C 811.089844 233.476562 770.335938 192.726562 720.066406 192.726562 " fill-opacity="1" fill-rule="nonzero"/><g clip-path="url(#7e0fdd7e40)"><path fill="#004aad" d="M 720.066406 637.210938 C 720.066406 637.210938 549.234375 404.75 549.234375 310.402344 C 549.234375 216.054688 625.714844 139.570312 720.066406 139.570312 C 814.40625 139.570312 890.898438 216.054688 890.898438 310.402344 C 890.898438 404.75 720.066406 637.210938 720.066406 637.210938 Z M 720.066406 25.945312 C 510.6875 25.945312 340.945312 195.683594 340.945312 405.066406 C 340.945312 614.445312 510.6875 784.179688 720.066406 784.179688 C 929.445312 784.179688 1099.179688 614.445312 1099.179688 405.066406 C 1099.179688 195.683594 929.445312 25.945312 720.066406 25.945312 " fill-opacity="1" fill-rule="nonzero"/></g></svg>