<svg xmlns="http://www.w3.org/2000/svg" xmlns:xlink="http://www.w3.org/1999/xlink" width="1920" zoomAndPan="magnify" viewBox="0 0 1440 809.999993" height="1080" preserveAspectRatio="xMidYMid meet" version="1.0"><defs><clipPath id="dd26a68d2f"><path d="M 375.488281 24.160156 L 1137.488281 24.160156 L 1137.488281 786 L 375.488281 786 Z M 375.488281 24.160156 " clip-rule="nonzero"/></clipPath></defs><rect x="-144" width="1728" fill="#ffffff" y="-80.999999" height="971.999992" fill-opacity="1"/><rect x="-144" width="1728" fill="#ffffff" y="-80.999999" height="971.999992" fill-opacity="1"/><g clip-path="url(#dd26a68d2f)"><path fill="#004aad" d="M 756.257812 24.148438 C 545.449219 24.148438 375.445312 195.851562 375.445312 404.960938 C 375.445312 615.765625 547.148438 785.773438 756.257812 785.773438 C 967.0625 785.773438 1137.070312 614.066406 1137.070312 404.960938 C 1137.070312 195.851562 967.0625 24.148438 756.257812 24.148438 Z M 992.566406 588.566406 C 982.363281 622.566406 936.464844 671.867188 893.960938 671.867188 L 890.5625 670.167969 C 827.660156 666.769531 740.957031 607.265625 661.054688 510.363281 L 632.152344 474.660156 C 552.25 377.757812 509.75 282.554688 519.949219 221.351562 C 526.75 177.152344 591.351562 141.449219 628.753906 141.449219 C 647.453125 141.449219 654.253906 149.949219 655.953125 156.75 C 676.355469 194.152344 703.554688 258.753906 703.554688 282.554688 L 703.554688 285.957031 C 698.457031 297.855469 688.253906 304.65625 679.753906 309.757812 C 667.855469 316.554688 661.054688 321.65625 659.355469 333.558594 C 659.355469 336.957031 662.753906 355.65625 715.457031 420.261719 L 737.554688 447.460938 C 790.257812 510.363281 807.257812 517.164062 810.660156 517.164062 C 824.257812 518.863281 829.359375 513.761719 839.558594 503.5625 C 846.359375 495.0625 854.859375 486.5625 866.761719 484.863281 L 870.160156 484.863281 C 893.960938 489.960938 951.761719 527.363281 985.765625 556.265625 C 990.863281 557.964844 999.367188 566.464844 992.566406 588.566406 Z M 992.566406 588.566406 " fill-opacity="1" fill-rule="nonzero"/></g></svg>